<svg width="41" height="41" viewBox="0 0 41 41" fill="none" xmlns="http://www.w3.org/2000/svg">
<path d="M3.4165 10.2513C3.4165 9.79822 3.59649 9.3637 3.91686 9.04333C4.23724 8.72295 4.67176 8.54297 5.12484 8.54297H35.8748C36.3279 8.54297 36.7624 8.72295 37.0828 9.04333C37.4032 9.3637 37.5832 9.79822 37.5832 10.2513C37.5832 10.7044 37.4032 11.1389 37.0828 11.4593C36.7624 11.7797 36.3279 11.9596 35.8748 11.9596H5.12484C4.67176 11.9596 4.23724 11.7797 3.91686 11.4593C3.59649 11.1389 3.4165 10.7044 3.4165 10.2513ZM3.4165 20.556C3.4165 20.1029 3.59649 19.6684 3.91686 19.348C4.23724 19.0276 4.67176 18.8476 5.12484 18.8476H35.8748C36.3279 18.8476 36.7624 19.0276 37.0828 19.348C37.4032 19.6684 37.5832 20.1029 37.5832 20.556C37.5832 21.009 37.4032 21.4436 37.0828 21.7639C36.7624 22.0843 36.3279 22.2643 35.8748 22.2643H5.12484C4.67176 22.2643 4.23724 22.0843 3.91686 21.7639C3.59649 21.4436 3.4165 21.009 3.4165 20.556ZM5.12484 29.1523C4.67176 29.1523 4.23724 29.3323 3.91686 29.6527C3.59649 29.973 3.4165 30.4076 3.4165 30.8606C3.4165 31.3137 3.59649 31.7482 3.91686 32.0686C4.23724 32.389 4.67176 32.569 5.12484 32.569H35.8748C36.3279 32.569 36.7624 32.389 37.0828 32.0686C37.4032 31.7482 37.5832 31.3137 37.5832 30.8606C37.5832 30.4076 37.4032 29.973 37.0828 29.6527C36.7624 29.3323 36.3279 29.1523 35.8748 29.1523H5.12484Z" fill="white"/>
</svg>
